<svg width="467" height="87" viewBox="0 0 467 87" fill="none" xmlns="http://www.w3.org/2000/svg">
<path d="M0 0.317073C0.481 0.206073 0.963001 -0.00491269 1.443 8.73075e-05C5.143 0.0320873 8.842 0.132068 12.543 0.161068C17.638 0.201068 22.741 0.02009 27.826 0.25909C33.406 0.52209 38.778 1.81106 43.183 5.53106C49.111 10.5361 51.251 17.1441 50.809 24.7031C50.521 29.6201 48.94 34.1151 45.987 38.0801C42.211 43.1501 36.904 45.6401 30.889 46.8511C27.079 47.6181 23.23 47.7501 19.352 47.4171C13.738 46.9351 8.115 46.6561 2.478 47.0721C1.983 47.1091 1.466 46.8371 0.959 46.7081C0.981 46.5451 1.00299 46.3821 1.02599 46.2181C1.76999 46.1131 2.514 46.0141 3.257 45.9041C4.877 45.6611 5.417 45.2381 5.716 43.6181C5.976 42.2091 6.183 40.7691 6.195 39.3411C6.274 30.2901 6.302 21.2381 6.323 12.1871C6.328 9.80307 6.27599 7.41806 6.20499 5.03506C6.12399 2.31006 5.21399 1.37107 2.49699 1.11407C1.69799 1.03807 0.897 0.973072 0.0979996 0.903072C0.0649996 0.707072 0.033 0.512073 0 0.317073ZM14.092 21.5321C14.092 25.9311 14.073 30.3311 14.102 34.7311C14.113 36.3731 14.173 38.0201 14.319 39.6551C14.576 42.5251 15.345 43.4691 18.149 44.1411C22.055 45.0781 26.003 44.9361 29.878 44.0131C34.795 42.8421 38.68 40.2201 40.781 35.4261C42.246 32.0831 42.558 28.5321 42.581 24.9351C42.611 20.2241 41.6 15.7951 38.91 11.8621C33.331 3.70609 22.97 2.07106 15.293 3.17306C14.251 3.32206 14.081 4.08608 14.084 5.00308C14.101 10.5121 14.092 16.0221 14.092 21.5321Z" fill="white"/>
<path d="M309.099 36.1319C309.36 35.6269 309.529 35.3589 309.644 35.0679C313.426 25.5259 317.207 15.9839 320.972 6.43586C321.318 5.56086 321.613 4.65788 321.837 3.74488C322.149 2.47988 321.731 1.89188 320.441 1.68888C319.503 1.54188 318.556 1.44687 317.614 1.32887C317.607 1.18987 317.599 1.05088 317.593 0.911875C317.982 0.766875 318.37 0.499867 318.76 0.496867C323.114 0.466867 327.468 0.468869 331.822 0.492869C332.176 0.494869 332.53 0.714872 332.885 0.833872C332.883 0.956873 332.88 1.07888 332.877 1.20088C332.494 1.29788 332.113 1.47086 331.729 1.47886C329.463 1.52486 327.908 2.64088 326.997 4.64988C324.978 9.09888 322.98 13.5579 321.01 18.0279C316.966 27.1959 312.947 36.3759 308.913 45.5479C308.698 46.0359 308.469 46.5239 308.187 46.9739C307.441 48.1709 306.624 48.1769 306.034 46.8799C304.91 44.4159 303.888 41.9049 302.854 39.3999C298.378 28.5419 293.911 17.6809 289.448 6.81687C288.504 4.51787 287.429 2.35289 284.669 1.80589C283.905 1.65489 283.121 1.60986 282.356 1.46586C282.078 1.41386 281.827 1.21587 281.563 1.08387C281.828 0.884872 282.083 0.531872 282.358 0.514872C283.505 0.446872 284.66 0.475871 285.812 0.475871C290.371 0.474871 294.93 0.464885 299.49 0.490885C299.966 0.493885 300.44 0.709891 300.915 0.827891C300.901 0.992891 300.889 1.15789 300.875 1.32289C300.302 1.40589 299.729 1.50989 299.153 1.56889C297.271 1.76089 296.65 2.55988 297.211 4.38688C297.824 6.38588 298.567 8.34487 299.305 10.3039C302.416 18.5639 305.545 26.8179 308.67 35.0739C308.766 35.3419 308.881 35.6029 309.099 36.1319Z" fill="white"/>
<path d="M107.709 29.1189C110.01 29.1189 112.313 29.1009 114.613 29.1409C114.931 29.1459 115.243 29.4459 115.558 29.6099C115.266 29.7659 114.987 30.0199 114.679 30.0609C112.096 30.4049 111.642 30.9119 111.622 33.5529C111.595 37.2519 111.535 40.9519 111.55 44.6519C111.554 45.5839 111.207 46.0689 110.362 46.3989C105.904 48.1449 101.248 48.4559 96.5451 48.2679C92.7921 48.1189 89.1301 47.4279 85.6531 45.9109C77.6241 42.4079 74.2501 35.6219 74.7731 27.4049C75.3021 19.0939 80.9631 11.8499 91.2081 10.0919C96.9241 9.11092 102.593 9.76592 108.25 10.6789C109.02 10.8029 109.824 10.7839 110.562 11.0029C110.874 11.0949 111.267 11.6349 111.259 11.9649C111.205 14.4689 111.084 16.9719 110.922 19.4719C110.896 19.8809 110.563 20.2689 110.373 20.6669C110.157 20.3219 109.794 19.9969 109.747 19.6299C109.411 17.0439 107.847 15.4179 105.655 14.2859C101.09 11.9279 96.2441 11.6419 91.3831 12.8809C87.3991 13.8969 84.5591 16.5469 83.2881 20.5039C81.4621 26.1869 81.7851 31.8109 84.6861 37.0899C87.7971 42.7499 92.8831 45.2859 99.1751 45.6189C100.394 45.6829 101.648 45.6049 102.847 45.3849C104.41 45.0989 104.751 44.5859 104.755 43.0109C104.763 39.8439 104.755 36.6769 104.734 33.5099C104.719 31.1229 103.79 30.2199 101.363 30.0599C100.829 30.0249 100.313 29.7259 99.7891 29.5479C100.333 29.4049 100.875 29.1519 101.423 29.1389C103.517 29.0909 105.613 29.1189 107.709 29.1189Z" fill="white"/>
<path d="M394.392 10.5621C394.809 10.4931 395.226 10.3641 395.643 10.3621C400.247 10.3481 404.852 10.3521 409.457 10.3561C409.743 10.3561 410.046 10.3461 410.31 10.4331C410.452 10.4811 410.585 10.7181 410.614 10.8881C410.63 10.9871 410.449 11.1491 410.324 11.2331C410.232 11.2941 410.087 11.2871 409.965 11.2901C407.087 11.3631 406.517 11.9571 406.483 15.2721C406.422 21.3621 406.394 27.4531 406.508 33.5411C406.543 35.4031 406.882 37.3211 407.445 39.0991C408.6 42.7481 411.277 44.7291 415.059 45.1731C418.497 45.5771 421.602 44.8851 424.058 42.2321C425.686 40.4741 426.324 38.2751 426.408 36.0091C426.589 31.1641 426.564 26.3111 426.589 21.4611C426.6 19.2001 426.525 16.9391 426.493 14.6771C426.458 12.2661 425.644 11.4241 423.234 11.3171C422.905 11.3021 422.564 11.3431 422.252 11.2651C422.055 11.2151 421.901 10.9931 421.729 10.8471C421.922 10.6851 422.095 10.4761 422.317 10.3761C422.488 10.2991 422.721 10.3551 422.927 10.3551C426.749 10.3551 430.573 10.3411 434.394 10.3761C434.804 10.3801 435.211 10.6761 435.62 10.8361C435.247 10.9951 434.884 11.2621 434.5 11.2941C432.072 11.5041 431.474 12.1271 431.451 14.8031C431.405 20.2761 431.47 25.7491 431.347 31.2191C431.299 33.3831 431.067 35.5811 430.584 37.6871C429.352 43.0731 425.775 46.2721 420.517 47.5561C416.701 48.4871 412.819 48.3441 409.042 47.3001C403.554 45.7841 400.674 41.9141 399.835 36.4301C399.594 34.8541 399.546 33.2391 399.529 31.6391C399.466 25.9631 399.51 20.2851 399.398 14.6091C399.349 12.1481 398.419 11.4031 395.929 11.3071C395.41 11.2871 394.896 11.1791 394.38 11.1111C394.383 10.9281 394.388 10.7451 394.392 10.5621Z" fill="white"/>
<path d="M200.742 47.2692C202.89 46.5522 201.954 45.3642 201.53 44.2752C200.503 41.6352 199.429 39.0132 198.436 36.3612C198.136 35.5582 197.75 35.2072 196.841 35.2202C193.305 35.2742 189.768 35.2252 186.232 35.2652C185.816 35.2692 185.152 35.4842 185.03 35.7782C183.87 38.5812 182.7 41.3872 181.746 44.2632C181.122 46.1412 181.747 46.7882 183.768 46.8712C183.933 46.8782 184.116 46.8292 184.258 46.8862C184.519 46.9922 184.756 47.1582 185.003 47.3002C184.737 47.4782 184.48 47.6712 184.201 47.8252C184.107 47.8772 183.959 47.8342 183.836 47.8342C180.224 47.8342 176.611 47.8352 172.999 47.8322C172.713 47.8322 172.41 47.8532 172.146 47.7682C172.003 47.7222 171.842 47.4712 171.843 47.3142C171.844 47.1712 172.045 47.0202 172.179 46.8962C172.227 46.8512 172.338 46.8582 172.419 46.8632C175.672 47.0702 176.995 44.9412 178.092 42.3552C182.449 32.0782 186.871 21.8292 191.275 11.5712C191.534 10.9682 191.79 10.3562 192.131 9.79917C192.698 8.87317 193.468 8.87519 194.031 9.81919C194.428 10.4852 194.728 11.2132 195.034 11.9292C199.131 21.5172 203.212 31.1112 207.325 40.6922C207.842 41.8952 208.478 43.0532 209.131 44.1902C210.096 45.8742 211.503 46.8762 213.532 46.8652C213.833 46.8642 214.135 47.1222 214.436 47.2602C214.164 47.4492 213.89 47.8052 213.619 47.8032C209.593 47.7702 205.567 47.6932 201.541 47.6132C201.372 47.6102 201.207 47.4742 200.742 47.2692ZM191.619 18.9352C189.765 23.6432 188.048 28.0062 186.285 32.4852C189.88 32.4852 193.252 32.4852 196.807 32.4852C195.09 27.9992 193.426 23.6532 191.619 18.9352Z" fill="white"/>
<path d="M346.439 47.1309C347.665 45.8879 347.674 45.8839 346.992 44.1279C345.937 41.4109 344.846 38.7069 343.821 35.9779C343.547 35.2489 343.168 34.9709 342.38 34.9789C338.802 35.0169 335.223 34.9729 331.645 35.0269C331.227 35.0329 330.591 35.3729 330.438 35.7249C329.401 38.0939 328.458 40.5039 327.511 42.9109C327.332 43.3639 327.245 43.8589 327.166 44.3429C326.901 45.9759 327.35 46.4759 329.025 46.6389C329.548 46.6899 330.049 46.9719 330.56 47.1479C330.015 47.2949 329.471 47.5629 328.924 47.5689C325.435 47.6079 321.945 47.6029 318.456 47.5669C318.09 47.5639 317.727 47.2639 317.363 47.1019C317.718 46.9329 318.075 46.6139 318.43 46.6149C320.954 46.6259 322.309 45.1389 323.217 43.0219C325.449 37.8139 327.689 32.6089 329.926 27.4029C332.26 21.9699 334.57 16.5259 336.958 11.1169C337.29 10.3659 338.012 9.78691 338.553 9.12891C339.085 9.80391 339.792 10.4039 340.124 11.1669C344.39 20.9969 348.597 30.8519 352.838 40.6919C353.292 41.7439 353.821 42.7709 354.399 43.7629C355.407 45.4939 356.791 46.6679 358.95 46.6289C359.224 46.6239 359.505 46.9239 359.783 47.0829C359.532 47.2489 359.279 47.5619 359.031 47.5599C354.923 47.5069 350.815 47.4139 346.708 47.3249C346.648 47.3229 346.587 47.2399 346.439 47.1309ZM342.277 32.2829C340.54 27.7859 338.875 23.4789 337.083 18.8409C335.225 23.5369 333.52 27.8479 331.765 32.2829C335.353 32.2829 338.671 32.2829 342.277 32.2829Z" fill="white"/>
<path d="M466.131 39.751C466.228 40.204 466.438 40.666 466.399 41.106C466.265 42.619 466.103 44.134 465.839 45.628C465.525 47.417 465.264 47.605 463.476 47.583C459.488 47.534 455.5 47.435 451.512 47.4C448.264 47.372 445.014 47.413 441.764 47.414C441.291 47.414 440.818 47.359 440.345 47.329C440.319 47.204 440.292 47.078 440.266 46.952C440.612 46.837 440.951 46.655 441.304 46.618C443.547 46.384 444.107 46.002 444.279 43.805C444.506 40.899 444.585 37.977 444.592 35.061C444.609 28.274 444.548 21.487 444.515 14.701C444.502 12.304 443.59 11.424 441.134 11.295C440.564 11.265 439.745 11.684 439.496 10.694C440.047 10.559 440.598 10.31 441.149 10.309C445.468 10.297 449.789 10.357 454.108 10.346C457.745 10.336 461.381 10.259 465.22 10.209C464.455 12.442 465.096 15.085 464.102 17.467C463.966 17.462 463.83 17.456 463.694 17.451C463.634 17.155 463.549 16.862 463.518 16.562C463.303 14.47 462.42 13.465 460.343 13.326C457.679 13.149 455.004 13.146 452.334 13.033C451.542 12.999 451.365 13.362 451.37 14.067C451.391 17.77 451.396 21.473 451.366 25.176C451.36 25.991 451.676 26.27 452.456 26.252C455.252 26.187 458.055 26.253 460.841 26.058C461.945 25.981 463.012 25.351 464.12 24.963C464.511 25.864 463.721 32.682 462.883 33.203C462.823 32.701 462.77 32.287 462.728 31.872C462.553 30.14 461.716 29.204 460.005 29.105C457.42 28.956 454.828 28.935 452.241 28.829C451.571 28.801 451.374 29.099 451.377 29.704C451.395 33.531 451.351 37.358 451.429 41.183C451.467 43.035 452.349 44.207 454.217 44.392C456.766 44.643 459.363 44.613 461.925 44.472C463.847 44.367 464.865 43.027 465.246 41.184C465.35 40.685 465.546 40.207 465.699 39.719C465.843 39.731 465.987 39.741 466.131 39.751Z" fill="white"/>
<path d="M169.373 47.5212C168.824 47.6412 168.378 47.8271 167.934 47.8211C165.14 47.7881 162.346 47.6732 159.551 47.6642C157.58 47.6572 155.608 47.7932 153.636 47.8192C153.222 47.8242 152.805 47.6252 152.389 47.5212C152.4 47.3782 152.41 47.2362 152.421 47.0942C152.828 47.0102 153.231 46.8772 153.642 46.8482C155.817 46.6912 156.45 46.1142 156.572 43.8742C156.711 41.3302 156.812 38.7812 156.823 36.2332C156.856 28.8682 156.835 21.5032 156.833 14.1382C156.833 13.8992 156.802 13.6601 156.764 13.1141C153.159 13.3171 149.604 13.4522 146.064 13.7502C144.586 13.8752 143.929 15.1252 143.379 16.3752C143.239 16.6952 142.897 16.9252 142.647 17.1972C142.53 16.8382 142.264 16.4522 142.321 16.1232C142.657 14.1842 143.072 12.2582 143.451 10.3262C143.574 9.70115 143.861 9.61516 144.503 9.72416C146.155 10.0042 147.831 10.2932 149.499 10.3052C157.275 10.3652 165.052 10.3472 172.829 10.3152C174.012 10.3102 175.192 10.0361 176.378 9.98414C176.676 9.97114 177.256 10.3332 177.257 10.5252C177.268 12.7012 177.201 14.8792 177.126 17.0552C177.118 17.2902 176.924 17.5192 176.521 17.7572C176.413 17.4002 176.229 17.0482 176.208 16.6852C176.113 15.0682 175.098 14.2162 173.696 13.8692C172.432 13.5562 171.11 13.3972 169.805 13.3432C167.765 13.2592 165.72 13.3211 163.537 13.3211C163.537 13.8581 163.537 14.2992 163.537 14.7412C163.537 21.2012 163.489 27.6612 163.556 34.1212C163.592 37.5692 163.769 41.0182 163.996 44.4602C164.1 46.0222 164.695 46.4762 166.277 46.6942C167.205 46.8212 168.138 46.9201 169.067 47.0451C169.12 47.0501 169.156 47.1732 169.373 47.5212Z" fill="white"/>
<path d="M215.046 11.074C216.187 10.163 231.016 10.165 232.071 10.988C231.462 11.123 231.036 11.283 230.604 11.302C227.659 11.435 227.033 11.946 227.001 14.902C226.927 21.935 226.94 28.969 226.955 36.002C226.959 37.808 227.031 39.619 227.195 41.417C227.394 43.598 228.003 44.4 230.102 44.557C232.874 44.764 235.679 44.762 238.456 44.606C240.452 44.494 241.537 43.07 242.029 41.192C242.158 40.701 242.327 40.219 242.477 39.734C242.61 39.726 242.744 39.718 242.877 39.71C242.988 40.17 243.227 40.641 243.19 41.087C243.062 42.6 242.892 44.115 242.635 45.61C242.269 47.747 242.055 47.922 239.908 47.892C234.565 47.816 229.222 47.671 223.879 47.624C221.58 47.604 219.28 47.783 216.981 47.813C216.61 47.818 216.235 47.517 215.862 47.357C216.218 47.186 216.562 46.901 216.932 46.861C219.063 46.633 219.659 46.221 219.824 44.098C220.046 41.234 220.136 38.354 220.143 35.481C220.161 28.531 220.102 21.581 220.065 14.631C220.053 12.372 219.157 11.467 216.852 11.312C216.355 11.278 215.859 11.183 215.046 11.074Z" fill="white"/>
<path d="M390.94 39.5593C391.007 40.0163 391.172 40.4823 391.126 40.9263C390.949 42.5993 390.688 44.2623 390.489 45.9333C390.338 47.1943 389.628 47.6853 388.396 47.6543C384.411 47.5533 380.424 47.4303 376.438 47.4183C372.7 47.4073 368.96 47.5353 365.221 47.5773C364.752 47.5823 364.281 47.4393 363.81 47.3653C363.805 47.2093 363.8 47.0543 363.795 46.8983C364.178 46.8003 364.556 46.6483 364.944 46.6133C367.155 46.4103 367.83 45.7733 367.935 43.5143C368.065 40.7643 368.172 38.0123 368.182 35.2593C368.206 28.5963 368.168 21.9323 368.154 15.2683C368.148 12.2693 367.418 11.5083 364.421 11.2843C364.085 11.2593 363.767 10.9813 363.44 10.8203C363.768 10.6643 364.095 10.3753 364.424 10.3733C369.234 10.3443 374.042 10.3453 378.852 10.3703C379.161 10.3713 379.468 10.6163 379.776 10.7483C379.472 10.9313 379.181 11.2483 378.865 11.2763C375.408 11.5703 375.121 11.6603 375.05 15.1503C374.909 22.0963 374.963 29.0453 374.992 35.9933C375 37.9593 375.166 39.9283 375.325 41.8893C375.43 43.1993 376.216 43.9553 377.509 44.1973C380.608 44.7743 383.722 44.8773 386.822 44.3153C388.708 43.9723 389.597 42.5613 390.04 40.8063C390.151 40.3683 390.321 39.9463 390.464 39.5163C390.623 39.5323 390.781 39.5453 390.94 39.5593Z" fill="white"/>
<path d="M54.649 10.6061C55.015 10.5221 55.38 10.3671 55.746 10.3651C60.224 10.3481 64.701 10.3451 69.178 10.3721C69.524 10.3741 69.867 10.6371 70.213 10.7781C69.865 10.9561 69.528 11.2611 69.167 11.2921C66.759 11.4991 66.135 12.0331 66.029 14.4811C65.922 16.9441 65.945 19.4131 65.948 21.8791C65.956 28.5811 65.984 35.2821 66.009 41.9831C66.01 42.3931 66.051 42.8021 66.092 43.2111C66.403 46.3061 66.826 46.6921 69.983 46.8401C70.538 46.8661 71.089 46.9761 71.642 47.0481C71.645 47.2081 71.647 47.3681 71.649 47.5291C71.26 47.6311 70.872 47.8191 70.482 47.8211C65.637 47.8411 60.792 47.8451 55.947 47.8111C55.588 47.8091 55.231 47.4831 54.872 47.3081C55.204 47.1551 55.526 46.8961 55.869 46.8641C58.305 46.6361 58.729 46.3811 58.919 43.9201C59.137 41.0981 59.158 38.2561 59.16 35.4221C59.166 28.5581 59.112 21.6931 59.08 14.8281C59.068 12.2261 58.346 11.4761 55.752 11.2981C55.371 11.2721 55.001 11.0901 54.626 10.9811C54.633 10.8561 54.641 10.7311 54.649 10.6061Z" fill="white"/>
<path d="M138.734 47.5711C138.327 47.6591 137.92 47.8221 137.513 47.8231C132.706 47.8411 127.899 47.8451 123.092 47.8141C122.716 47.8121 122.341 47.5201 121.966 47.3631C122.32 47.1901 122.663 46.8961 123.029 46.8631C125.365 46.6531 125.846 46.2871 125.989 43.9721C126.152 41.3481 126.221 38.7151 126.23 36.0861C126.255 29.0501 126.23 22.0141 126.217 14.9781C126.212 12.2341 125.515 11.5201 122.755 11.2851C122.432 11.2581 122.133 10.9551 121.823 10.7801C122.13 10.6381 122.436 10.3751 122.744 10.3741C124.799 10.3661 126.855 10.4401 128.911 10.4381C131.378 10.4361 133.845 10.3661 136.311 10.3751C136.644 10.3761 136.975 10.6661 137.307 10.8211C136.985 10.9851 136.673 11.2631 136.339 11.2931C133.761 11.5261 133.146 12.0841 133.138 14.6571C133.111 23.9931 133.13 33.3301 133.132 42.6661C133.132 42.8301 133.152 42.9941 133.161 43.1591C133.327 46.0801 133.88 46.6381 136.785 46.8321C137.437 46.8751 138.087 46.9451 138.738 47.0031C138.737 47.1931 138.735 47.3821 138.734 47.5711Z" fill="white"/>
<path d="M246.322 29.5643C246.322 20.8353 246.322 12.3903 246.322 3.69434C252.585 8.03834 258.677 12.2643 264.96 16.6213C258.736 20.9433 252.629 25.1853 246.322 29.5643Z" fill="#64656A"/>
<path d="M260.406 29.4393C260.406 20.7113 260.406 12.2653 260.406 3.56934C266.669 7.91334 272.761 12.1393 279.043 16.4963C272.819 20.8193 266.712 25.0603 260.406 29.4393Z" fill="#DCDDE1"/>
<path d="M294.834 62.536C297.067 62.536 299.203 62.452 301.329 62.56C303.363 62.664 304.982 63.522 305.54 65.687C306.087 67.807 305.604 69.586 303.608 70.916C305.722 71.943 306.503 73.64 306.286 75.837C306.055 78.176 304.778 79.723 302.429 79.923C299.95 80.134 297.438 79.97 294.834 79.97C294.834 74.282 294.834 68.436 294.834 62.536ZM296.286 78.683C298.221 78.683 300.104 78.808 301.964 78.647C303.727 78.494 304.662 77.247 304.724 75.441C304.788 73.522 304.079 72.176 302.483 72.009C300.442 71.796 298.362 71.958 296.287 71.958C296.286 74.197 296.286 76.397 296.286 78.683ZM296.308 70.304C298.137 70.304 299.936 70.407 301.716 70.272C303.22 70.158 304.041 69.004 304.11 67.333C304.183 65.557 303.489 64.24 301.99 64.074C300.113 63.867 298.196 64.025 296.226 64.025C296.226 65.896 296.223 67.696 296.229 69.496C296.23 69.733 296.273 69.97 296.308 70.304Z" fill="white"/>
<path d="M113.315 80.1862C113.315 74.2442 113.315 68.4232 113.315 62.2852C115.809 62.4672 118.263 62.4842 120.659 62.8672C122.875 63.2212 124.205 64.8322 124.868 66.9322C125.704 69.5782 125.751 72.2812 125.076 74.9542C124.203 78.4082 122.252 79.9452 118.522 80.1692C116.845 80.2702 115.157 80.1862 113.315 80.1862ZM114.809 78.7392C116.047 78.7392 117.191 78.7512 118.334 78.7372C120.991 78.7052 122.792 77.3412 123.446 74.7762C124.035 72.4682 124.047 70.1282 123.43 67.8262C122.891 65.8142 121.663 64.3102 119.522 64.0172C118 63.8092 116.426 63.9762 114.808 63.9762C114.809 68.8682 114.809 73.7072 114.809 78.7392Z" fill="white"/>
<path d="M177.585 80.1569C176.939 80.1569 176.451 80.1569 175.886 80.1569C175.428 78.7939 174.95 77.4439 174.53 76.0759C174.347 75.4819 174.072 75.2199 173.408 75.2379C171.64 75.2839 169.868 75.2139 168.101 75.2879C167.745 75.3029 167.221 75.6769 167.09 76.0099C166.566 77.3459 166.166 78.7299 165.707 80.1369C165.151 80.1369 164.629 80.1369 163.989 80.1369C165.082 76.9909 166.155 73.8989 167.23 70.8089C168.147 68.1709 169.049 65.5279 170.006 62.9039C170.113 62.6119 170.504 62.3009 170.809 62.2449C171.012 62.2079 171.431 62.5609 171.523 62.8209C173.546 68.5479 175.539 74.2859 177.585 80.1569ZM167.776 73.7449C169.842 73.7449 171.712 73.7449 173.755 73.7449C172.779 70.7919 171.838 67.9429 170.896 65.0939C170.812 65.1059 170.728 65.1179 170.643 65.1309C169.703 67.9539 168.763 70.7789 167.776 73.7449Z" fill="white"/>
<path d="M198.444 72.6722C198.818 70.4462 198.127 69.5702 195.915 69.5872C194.773 69.5962 193.632 69.7372 192.418 69.8232C192.062 69.0452 192.234 68.4572 193.167 68.4082C194.671 68.3292 196.196 68.2422 197.685 68.4052C199.037 68.5532 199.974 69.5222 200.037 70.8882C200.172 73.8002 200.141 76.7212 200.152 79.6382C200.152 79.8172 199.93 79.9972 199.811 80.1772C199.49 79.9312 199.169 79.6842 198.79 79.3932C197.347 80.2312 195.736 80.7022 193.94 80.2402C192.312 79.8212 191.38 78.6632 191.287 76.8322C191.198 75.0842 191.967 73.7482 193.603 73.3572C195.181 72.9782 196.828 72.8892 198.444 72.6722ZM198.575 73.8302C197.199 73.9892 195.974 74.0702 194.773 74.2832C193.464 74.5162 192.937 75.2672 192.885 76.6042C192.84 77.7772 193.275 78.5942 194.446 78.9122C195.626 79.2322 198.132 78.6802 198.492 78.0252C198.565 77.8922 198.571 77.7102 198.572 77.5502C198.578 76.3702 198.575 75.1892 198.575 73.8302Z" fill="white"/>
<path d="M129.252 69.8193C128.877 68.8843 129.269 68.4143 130.201 68.3673C131.464 68.3033 132.747 68.1603 133.991 68.3103C136.036 68.5563 136.987 69.6173 137.044 71.6743C137.121 74.4663 137.063 77.2603 137.063 80.4433C136.457 80.0173 136.07 79.7453 135.684 79.4733C135.724 79.5533 135.764 79.6333 135.804 79.7133C134.304 79.9193 132.783 80.3863 131.308 80.2683C129.057 80.0883 128.061 78.6453 128.157 76.3653C128.236 74.4853 129.492 73.2663 131.621 73.0503C132.841 72.9263 134.066 72.8553 135.263 72.7623C135.783 70.6533 135.004 69.5873 132.929 69.5903C131.71 69.5913 130.491 69.7373 129.252 69.8193ZM135.462 73.8773C134.334 73.9653 133.402 74.0313 132.472 74.1173C132.148 74.1483 131.827 74.2213 131.508 74.2923C130.408 74.5383 129.82 75.2553 129.732 76.3523C129.646 77.4403 129.862 78.4023 131.057 78.8303C132.234 79.2523 134.88 78.7713 135.342 78.0273C135.423 77.8983 135.456 77.7183 135.457 77.5613C135.466 76.3823 135.462 75.2023 135.462 73.8773Z" fill="white"/>
<path d="M358.468 75.037C355.742 75.037 353.243 75.037 350.752 75.037C350.555 77.725 351.712 79.022 354.278 78.97C355.415 78.947 356.548 78.747 357.74 78.621C358.073 79.417 357.766 79.923 356.815 80.055C355.842 80.19 354.866 80.427 353.893 80.415C351.262 80.385 349.692 79.22 349.33 76.662C349.083 74.912 349.162 73.044 349.489 71.303C349.906 69.094 351.963 67.924 354.396 68.129C356.845 68.335 358.072 69.546 358.315 72.054C358.404 72.982 358.413 73.92 358.468 75.037ZM356.799 73.741C356.88 72.324 357.019 70.892 355.729 70.023C354.606 69.266 353.287 69.33 352.122 70.045C350.758 70.882 350.674 72.27 350.671 73.741C352.755 73.741 354.741 73.741 356.799 73.741Z" fill="white"/>
<path d="M155.982 72.6858C156.253 70.3908 155.556 69.5878 153.326 69.5778C152.711 69.5748 152.092 69.5838 151.48 69.6468C150.922 69.7038 150.372 69.8408 149.825 69.9408C149.452 68.9568 149.761 68.4148 150.721 68.3828C152.187 68.3338 153.67 68.2278 155.117 68.3918C156.536 68.5528 157.414 69.6718 157.576 71.0868C157.618 71.4528 157.615 71.8248 157.615 72.1938C157.618 74.8188 157.617 77.4448 157.617 80.4668C157.021 79.9938 156.674 79.7178 156.261 79.3908C154.846 80.1868 153.287 80.6888 151.532 80.2618C149.807 79.8418 148.771 78.5938 148.704 76.7228C148.642 75.0108 149.537 73.6748 151.278 73.2898C152.789 72.9588 154.355 72.8858 155.982 72.6858ZM156.08 73.8828C155.04 73.9608 154.149 74.0168 153.261 74.0978C152.895 74.1308 152.53 74.1978 152.173 74.2838C151.162 74.5248 150.476 75.0928 150.408 76.1948C150.341 77.2888 150.341 78.3598 151.647 78.8268C152.809 79.2418 155.454 78.7948 155.958 78.0598C156.043 77.9358 156.074 77.7518 156.075 77.5958C156.084 76.3788 156.08 75.1618 156.08 73.8828Z" fill="white"/>
<path d="M269.038 74.1902C269.072 73.7732 269.122 73.4062 269.131 73.0372C269.251 68.2732 272.98 67.5572 276.089 68.4862C277.383 68.8722 278.317 69.7892 278.476 71.0662C278.714 72.9622 278.893 74.9282 278.644 76.8042C278.305 79.3622 276.58 80.4972 273.882 80.4372C271.178 80.3772 269.591 79.0532 269.204 76.4792C269.089 75.7102 269.088 74.9232 269.038 74.1902ZM270.672 74.2652C270.64 74.2672 270.609 74.2692 270.577 74.2712C270.659 75.1282 270.654 76.0032 270.843 76.8352C271.195 78.3902 272.124 78.9832 273.963 78.9862C275.832 78.9892 276.833 78.4372 277.067 76.8582C277.298 75.2922 277.344 73.6582 277.179 72.0852C276.988 70.2542 275.959 69.5772 273.994 69.5742C271.826 69.5712 270.813 70.5052 270.677 72.6612C270.643 73.1942 270.672 73.7302 270.672 74.2652Z" fill="white"/>
<path d="M316.315 79.3063C314.836 80.2523 313.187 80.7063 311.343 80.2293C309.992 79.8803 309.052 79.0403 309.001 77.6973C308.884 74.6283 308.964 71.5513 308.964 68.4253C309.457 68.4253 309.856 68.4253 310.46 68.4253C310.46 68.9313 310.46 69.4463 310.46 69.9613C310.46 72.2653 310.439 74.5693 310.469 76.8733C310.486 78.2663 311.134 78.9073 312.498 78.9783C312.908 78.9993 313.321 78.9933 313.731 78.9743C315.786 78.8783 316.108 78.5393 316.108 76.5073C316.108 73.8403 316.108 71.1733 316.108 68.4393C316.637 68.4393 317.07 68.4393 317.604 68.4393C317.604 72.3153 317.604 76.1923 317.604 80.5053C317.042 79.9813 316.701 79.6643 316.315 79.3063Z" fill="white"/>
<path d="M339.043 80.1562C338.455 80.1562 338.048 80.1562 337.544 80.1562C337.544 76.2442 337.544 72.3662 337.544 68.0532C338.111 68.5802 338.453 68.8982 338.838 69.2562C340.289 68.3402 341.889 67.8572 343.695 68.3122C345.248 68.7032 346.176 69.6532 346.205 71.2392C346.259 74.1562 346.221 77.0762 346.221 80.1272C345.748 80.1512 345.322 80.1732 344.692 80.2072C344.692 79.5422 344.692 78.9442 344.692 78.3462C344.691 76.1252 344.713 73.9032 344.683 71.6812C344.664 70.2862 344.02 69.6532 342.648 69.5832C342.238 69.5622 341.825 69.5682 341.415 69.5872C339.368 69.6852 339.044 70.0262 339.044 72.0592C339.042 74.7262 339.043 77.3932 339.043 80.1562Z" fill="white"/>
<path d="M209.862 86.03C210.622 84.257 211.399 82.624 212.009 80.93C212.234 80.307 212.267 79.47 212.044 78.855C210.879 75.652 209.603 72.49 208.369 69.313C208.267 69.051 208.19 68.778 208.099 68.504C209.287 68.111 209.87 68.432 210.241 69.67C211.062 72.409 212.077 75.09 213.144 78.175C213.873 76.067 214.481 74.315 215.086 72.562C215.408 71.631 215.827 70.719 216.018 69.762C216.265 68.522 216.893 68.105 218.185 68.469C218.07 68.831 217.972 69.205 217.834 69.565C215.836 74.782 213.804 79.986 211.859 85.223C211.47 86.274 210.822 86.179 209.862 86.03Z" fill="white"/>
<path d="M180.122 68.2513C180.456 68.5673 180.791 68.8833 181.182 69.2513C182.645 68.3223 184.283 67.8453 186.119 68.3263C187.541 68.6993 188.43 69.4793 188.476 70.9483C188.571 73.9783 188.504 77.0123 188.504 80.1173C188.024 80.1173 187.588 80.1173 186.973 80.1173C186.973 78.5673 186.973 76.9833 186.973 75.3993C186.973 74.0843 186.966 72.7703 186.974 71.4543C186.98 70.2943 186.348 69.7153 185.26 69.6033C184.691 69.5453 184.109 69.5603 183.537 69.6023C181.644 69.7423 181.325 70.1013 181.325 71.9993C181.325 74.6663 181.325 77.3333 181.325 80.1263C180.831 80.1513 180.403 80.1723 179.88 80.1983C179.88 76.2553 179.88 72.3733 179.88 68.4913C179.96 68.4133 180.041 68.3323 180.122 68.2513Z" fill="white"/>
<path d="M263.675 80.157C263.064 80.157 262.7 80.157 262.187 80.157C262.187 76.664 262.187 73.201 262.187 69.648C261.322 69.601 260.599 69.561 259.877 69.521C259.826 69.403 259.776 69.286 259.726 69.168C260.109 68.993 260.485 68.685 260.874 68.668C261.978 68.622 262.292 68.06 262.141 67.069C262.117 66.908 262.137 66.741 262.138 66.576C262.148 63 264.364 61.414 267.891 62.521C267.891 62.857 267.891 63.213 267.891 63.338C266.58 63.695 264.933 63.674 264.187 64.484C263.462 65.269 263.665 66.907 263.436 68.321C264.904 68.321 266.079 68.321 267.347 68.321C267.38 68.761 267.406 69.099 267.44 69.554C266.177 69.554 265.002 69.554 263.675 69.554C263.675 73.128 263.675 76.594 263.675 80.157Z" fill="white"/>
<path d="M253.512 69.797C251.848 69.719 250.498 69.587 249.152 69.61C247.812 69.633 247.151 70.288 247.092 71.417C247.03 72.605 247.511 73.069 249.007 73.301C249.898 73.439 250.792 73.566 251.668 73.766C252.837 74.034 253.691 74.6941 253.872 75.9531C254.084 77.4311 253.809 78.803 252.441 79.622C250.414 80.837 248.243 80.515 246.122 79.896C245.857 79.818 245.769 79.135 245.59 78.708C247.189 78.805 248.593 78.941 249.999 78.955C250.99 78.964 251.869 78.595 252.274 77.58C252.824 76.201 252.128 75.074 250.583 74.804C249.656 74.642 248.717 74.54 247.8 74.334C246.507 74.044 245.703 73.269 245.607 71.878C245.509 70.487 246.188 69.2 247.428 68.655C249.204 67.874 251.046 68.002 252.842 68.549C253.151 68.644 253.277 69.336 253.512 69.797Z" fill="white"/>
<path d="M380.057 69.8121C378.294 69.7241 376.938 69.5301 375.608 69.6421C374.935 69.6991 374.071 70.151 373.712 70.699C372.997 71.788 373.688 72.9801 375.033 73.2441C375.877 73.4091 376.749 73.4321 377.59 73.6111C379.505 74.0171 380.297 74.8941 380.335 76.5371C380.378 78.3971 379.444 79.8891 377.659 80.1221C376.07 80.3291 374.414 80.1281 372.805 79.9511C372.48 79.9151 372.232 79.1801 371.914 78.7181C373.666 78.8141 375.091 78.9761 376.513 78.9471C377.999 78.9171 378.811 78.0611 378.824 76.7661C378.836 75.5421 378.201 74.972 376.668 74.768C375.857 74.661 375.036 74.5601 374.252 74.3421C372.694 73.9101 372.094 73.1721 372.025 71.7861C371.956 70.3871 372.667 69.1571 373.935 68.6221C375.681 67.8861 377.479 68.0181 379.237 68.5381C379.557 68.6311 379.719 69.2611 380.057 69.8121Z" fill="white"/>
<path d="M320.646 78.7429C322.302 78.8239 323.726 78.9699 325.146 78.9409C326.445 78.9159 327.245 78.1689 327.416 77.0849C327.607 75.8659 326.944 75.0379 325.574 74.8059C324.685 74.6559 323.777 74.5899 322.909 74.3659C321.352 73.9629 320.632 73.1069 320.558 71.7519C320.486 70.3949 321.323 69.1039 322.65 68.5699C324.327 67.8959 326.041 68.0429 327.719 68.5049C328.038 68.5929 328.213 69.1999 328.621 69.8209C327.044 69.7219 325.879 69.6189 324.711 69.5889C324.231 69.5759 323.729 69.6589 323.266 69.7979C322.339 70.0779 322.044 70.7939 322.064 71.7099C322.083 72.6299 322.672 73.0319 323.44 73.1989C324.478 73.4249 325.552 73.4959 326.58 73.7579C328.126 74.1519 328.822 74.9309 328.93 76.2269C329.055 77.7379 328.618 79.0239 327.21 79.7569C325.261 80.7719 323.219 80.5199 321.224 79.9179C320.936 79.8309 320.83 79.1419 320.646 78.7429Z" fill="white"/>
<path d="M361.062 78.7403C362.8 78.8253 364.224 78.9703 365.644 78.9413C366.942 78.9143 367.742 78.1653 367.911 77.0813C368.1 75.8623 367.436 75.0373 366.064 74.8053C365.175 74.6553 364.267 74.5883 363.4 74.3633C361.844 73.9603 361.124 73.1023 361.053 71.7473C360.983 70.3883 361.82 69.1013 363.148 68.5683C364.826 67.8953 366.54 68.0423 368.217 68.5063C368.534 68.5933 368.708 69.2043 369.11 69.8213C367.536 69.7223 366.37 69.6193 365.202 69.5883C364.722 69.5763 364.22 69.6593 363.757 69.7993C362.83 70.0813 362.539 70.7993 362.559 71.7153C362.58 72.6353 363.172 73.0343 363.939 73.2013C364.977 73.4263 366.051 73.4983 367.079 73.7603C368.623 74.1533 369.318 74.9363 369.425 76.2333C369.549 77.7443 369.111 79.0293 367.701 79.7603C365.751 80.7733 363.711 80.5153 361.713 79.9223C361.428 79.8383 361.306 79.2083 361.062 78.7403Z" fill="white"/>
<path d="M243.121 78.6731C243.491 79.7191 243.061 80.1351 242.143 80.2101C241.246 80.2851 240.343 80.4591 239.452 80.4171C236.889 80.2981 235.482 79.1791 235.069 76.6191C234.82 75.0731 234.83 73.4191 235.085 71.8741C235.499 69.3531 236.954 68.2321 239.521 68.1401C240.375 68.1091 241.234 68.2731 242.09 68.3441C242.97 68.4161 243.496 68.7591 243.145 69.8451C241.205 69.8771 238.984 68.6881 237.302 70.5361C236.031 71.9311 236.231 73.7831 236.412 75.4801C236.736 78.5031 237.638 79.6361 243.121 78.6731Z" fill="white"/>
<path d="M226.412 79.2862C226.677 80.2522 226.25 80.4642 225.466 80.4452C223.003 80.3862 221.771 79.1552 221.765 76.6852C221.76 74.3522 221.764 72.0192 221.764 69.6382C220.915 69.5892 220.203 69.5482 219.49 69.5072C219.453 69.3862 219.416 69.2662 219.38 69.1462C219.754 68.9802 220.123 68.6882 220.504 68.6732C221.6 68.6282 221.903 68.0842 221.777 67.0792C221.707 66.5142 221.764 65.9332 221.764 65.2362C222.217 65.1002 222.662 64.9662 223.274 64.7822C223.274 66.0192 223.274 67.1082 223.274 68.3162C224.537 68.3162 225.669 68.3162 226.898 68.3162C226.933 68.7642 226.96 69.1012 226.995 69.5512C225.759 69.5512 224.62 69.5512 223.388 69.5512C223.388 72.3532 223.335 75.0512 223.417 77.7442C223.445 78.6722 224.199 79.1402 225.124 79.2172C225.564 79.2542 226.006 79.2652 226.412 79.2862Z" fill="white"/>
<path d="M141.516 65.2191C142.017 65.0751 142.437 64.9551 143.023 64.7861C143.023 66.0171 143.023 67.1061 143.023 68.3141C144.286 68.3141 145.418 68.3141 146.647 68.3141C146.685 68.7621 146.713 69.0981 146.751 69.5481C145.515 69.5481 144.376 69.5481 143.139 69.5481C143.139 72.3491 143.086 75.0461 143.168 77.7391C143.196 78.6671 143.945 79.1441 144.871 79.2141C145.275 79.2441 145.682 79.2191 146.073 79.2191C146.256 80.3661 146.192 80.4491 145.223 80.4371C142.76 80.4041 141.522 79.1571 141.516 76.6911C141.511 74.3581 141.515 72.0251 141.515 69.6401C140.669 69.5911 139.954 69.5501 139.24 69.5081C139.204 69.3881 139.167 69.2681 139.131 69.1481C139.504 68.9821 139.871 68.6911 140.25 68.6741C141.337 68.6261 141.658 68.0951 141.529 67.0841C141.457 66.5201 141.516 65.9381 141.516 65.2191Z" fill="white"/>
<path d="M203.839 62.502C204.318 62.502 204.714 62.502 205.237 62.502C205.237 63.573 205.237 64.591 205.237 65.608C205.237 69.635 205.213 73.663 205.268 77.689C205.275 78.205 205.716 78.709 205.924 79.231C206.069 79.593 206.16 79.977 206.299 80.43C204.313 80.104 203.758 79.582 203.751 77.976C203.727 72.962 203.744 67.949 203.749 62.935C203.749 62.819 203.796 62.702 203.839 62.502Z" fill="white"/>
<path d="M283.384 80.1583C282.773 80.1583 282.366 80.1583 281.874 80.1583C281.874 76.2643 281.874 72.3833 281.874 68.1553C282.4 68.5513 282.774 68.8323 283.05 69.0383C284.385 68.7393 285.74 68.3573 287.122 68.1533C288.069 68.0133 288.472 68.5393 288.141 69.4523C286.889 69.5913 285.674 69.7023 284.467 69.8693C283.651 69.9823 283.348 70.4613 283.364 71.3273C283.417 74.2343 283.384 77.1453 283.384 80.1583Z" fill="white"/>
<path d="M232.163 80.3919C230.612 80.3389 229.787 79.6139 229.763 78.2669C229.702 75.0029 229.743 71.7369 229.743 68.4219C230.212 68.4219 230.608 68.4219 231.2 68.4219C231.2 69.2629 231.2 70.1059 231.2 70.9479C231.2 72.7909 231.155 74.6359 231.218 76.4779C231.253 77.5019 230.754 78.7259 232.094 79.4159C232.234 79.4889 232.144 80.0109 232.163 80.3919Z" fill="white"/>
<path d="M332.146 68.416C332.679 68.416 333.077 68.416 333.634 68.416C333.634 70.234 333.634 72.027 333.634 73.821C333.634 75.094 333.559 76.374 333.668 77.637C333.716 78.191 334.167 78.702 334.386 79.252C334.522 79.591 334.565 79.967 334.659 80.373C332.833 80.185 332.182 79.646 332.16 78.154C332.111 74.955 332.146 71.755 332.146 68.416Z" fill="white"/>
<path d="M230.826 63.3069C231.093 63.7869 231.597 64.2889 231.555 64.7419C231.519 65.1399 230.872 65.4829 230.496 65.8499C230.127 65.4379 229.505 65.0509 229.464 64.6099C229.426 64.1939 230 63.7219 230.305 63.2749C230.479 63.2859 230.652 63.2959 230.826 63.3069Z" fill="white"/>
<path d="M334.462 64.6871C333.739 65.2371 333.253 65.8611 332.941 65.7831C332.49 65.6711 331.869 65.0501 331.87 64.6481C331.871 64.2451 332.516 63.5751 332.938 63.5241C333.314 63.4801 333.771 64.1251 334.462 64.6871Z" fill="white"/>
</svg>
